<svg xmlns="http://www.w3.org/2000/svg" width="1200" height="800" viewBox="0 0 1200 800" role="img" aria-label="Placeholder image">
  <rect width="1200" height="800" fill="#f2f1ee"/>
  <rect x="120" y="120" width="960" height="560" rx="28" fill="#ffffff" stroke="#111214" stroke-opacity="0.12" stroke-width="3"/>
  <g fill="#111214" fill-opacity="0.07">
    <circle cx="300" cy="260" r="7"/>
    <circle cx="350" cy="260" r="7"/>
    <circle cx="400" cy="260" r="7"/>
    <circle cx="450" cy="260" r="7"/>
    <circle cx="500" cy="260" r="7"/>
    <circle cx="550" cy="260" r="7"/>
    <circle cx="600" cy="260" r="7"/>
    <circle cx="650" cy="260" r="7"/>
    <circle cx="700" cy="260" r="7"/>

    <circle cx="300" cy="310" r="7"/>
    <circle cx="350" cy="310" r="7"/>
    <circle cx="400" cy="310" r="7"/>
    <circle cx="450" cy="310" r="7"/>
    <circle cx="500" cy="310" r="7"/>
    <circle cx="550" cy="310" r="7"/>
    <circle cx="600" cy="310" r="7"/>
    <circle cx="650" cy="310" r="7"/>
    <circle cx="700" cy="310" r="7"/>

    <circle cx="300" cy="360" r="7"/>
    <circle cx="350" cy="360" r="7"/>
    <circle cx="400" cy="360" r="7"/>
    <circle cx="450" cy="360" r="7"/>
    <circle cx="500" cy="360" r="7"/>
    <circle cx="550" cy="360" r="7"/>
    <circle cx="600" cy="360" r="7"/>
    <circle cx="650" cy="360" r="7"/>
    <circle cx="700" cy="360" r="7"/>

    <circle cx="300" cy="410" r="7"/>
    <circle cx="350" cy="410" r="7"/>
    <circle cx="400" cy="410" r="7"/>
    <circle cx="450" cy="410" r="7"/>
    <circle cx="500" cy="410" r="7"/>
    <circle cx="550" cy="410" r="7"/>
    <circle cx="600" cy="410" r="7"/>
    <circle cx="650" cy="410" r="7"/>
    <circle cx="700" cy="410" r="7"/>

    <circle cx="300" cy="460" r="7"/>
    <circle cx="350" cy="460" r="7"/>
    <circle cx="400" cy="460" r="7"/>
    <circle cx="450" cy="460" r="7"/>
    <circle cx="500" cy="460" r="7"/>
    <circle cx="550" cy="460" r="7"/>
    <circle cx="600" cy="460" r="7"/>
    <circle cx="650" cy="460" r="7"/>
    <circle cx="700" cy="460" r="7"/>
  </g>
  <text x="70" y="80" font-family="ui-sans-serif, system-ui, -apple-system, Segoe UI, Roboto, Arial" font-size="32" fill="#111214" fill-opacity="0.55">speaker-dots (placeholder)</text>
</svg>
